<svg xmlns="http://www.w3.org/2000/svg" version="1.1" xmlns:xlink="http://www.w3.org/1999/xlink" width="1000" height="1000"><metadata><rdf:RDF xmlns:rdf="http://www.w3.org/1999/02/22-rdf-syntax-ns#" xmlns:dc="http://purl.org/dc/elements/1.1/"><rdf:Description><dc:creator>RealFaviconGenerator</dc:creator><dc:source>https://realfavicongenerator.net</dc:source></rdf:Description></rdf:RDF></metadata><g clip-path="url(#SvgjsClipPath1001)"><rect width="1000" height="1000" fill="#ffffff"></rect><g transform="matrix(3.5,0,0,3.5,150,150)"><svg xmlns="http://www.w3.org/2000/svg" version="1.1" xmlns:xlink="http://www.w3.org/1999/xlink" viewBox="0 0 200 200" width="200" height="200"><rect width="200" height="200" fill="url('#gradient')"></rect><defs><linearGradient id="gradient" gradientTransform="rotate(212 0.5 0.5)"><stop offset="0%" stop-color="#e3c9a5"></stop><stop offset="100%" stop-color="#c7c3a6"></stop></linearGradient><clipPath id="SvgjsClipPath1001"><rect width="1000" height="1000" x="0" y="0" rx="350" ry="350"></rect></clipPath></defs><g><g fill="#5e5258" transform="matrix(3.861028817667654,0,0,3.861028817667654,25.864141932305643,127.45129027560557)" stroke="#788c7d" stroke-width="0.4"><path d="M9.89-8.57L9.89-6.03L4.50-6.03L4.50-2.64L10.87-2.64L10.87 0L1.07 0L1.07-14.22L10.89-14.22L10.89-11.57L4.50-11.57L4.50-8.57L9.89-8.57ZM14.96-14.22L17.78-3.87L20.62-14.22L24.44-14.22L19.66 0L15.91 0L11.16-14.22L14.96-14.22ZM33.65 0L32.82-2.66L28.13-2.66L27.30 0L23.64 0L28.86-14.22L32.08-14.22L37.33 0L33.65 0ZM30.47-10.23L28.95-5.30L32.00-5.30L30.47-10.23Z"></path></g></g></svg></g></g></svg>